<svg width="854" height="586" viewBox="0 0 854 586" fill="none" xmlns="http://www.w3.org/2000/svg">
<path d="M200.519 3.72076C201.801 7.70836 201.231 8.56284 198.098 7.42353C195.819 6.56905 193.114 7.1387 192.117 8.70526C191.12 10.4142 188.556 10.9839 186.42 10.1294C184.142 9.27492 181.151 11.9808 179.015 16.9653C177.021 21.3801 174.457 24.5132 173.46 23.9436C172.321 23.2315 172.036 25.2253 172.891 28.3584C173.745 31.6339 173.033 34.055 171.182 34.055C168.903 34.055 168.618 35.6215 170.612 39.1819C174.03 45.5905 172.321 69.2313 168.191 70.513C166.625 71.0827 165.2 72.7916 165.2 74.3582C165.2 75.9248 166.767 76.0672 168.761 74.9279C170.755 73.6461 170.043 76.2096 167.337 80.3396C161.498 89.3117 161.07 92.0176 165.912 89.5965C167.906 88.5996 167.337 89.4541 164.773 91.5903C161.213 94.581 160.786 96.7172 162.922 100.847C165.2 104.835 165.058 105.547 162.352 103.838C159.789 102.271 159.361 103.411 160.786 107.683C161.925 111.101 161.64 113.807 160.216 113.807C158.792 113.807 157.652 115.658 157.652 118.079C157.652 120.358 158.507 122.352 159.646 122.352C160.643 122.352 161.782 129.045 161.925 137.305C162.21 146.989 163.776 153.398 166.625 155.392C168.903 157.101 170.897 159.949 170.897 161.516C170.897 163.082 174.742 165.931 179.442 167.924C184.142 169.918 187.987 172.482 187.987 173.763C187.987 174.903 190.693 175.187 193.968 174.333C198.383 173.194 198.953 172.197 196.104 170.488C193.256 168.636 194.111 168.067 198.668 167.924C203.083 167.924 205.504 165.646 206.928 160.376C207.925 156.246 210.773 150.835 213.336 148.271C215.9 145.708 220.03 140.438 222.451 136.593C226.011 131.181 228.005 130.327 230.996 132.606C239.968 139.584 245.095 139.441 247.801 132.178C249.51 127.764 252.5 125.2 255.349 125.77C257.912 126.197 260.618 124.63 261.188 122.352C262.327 118.649 262.042 118.649 259.621 122.209C257.058 125.912 256.346 125.77 254.779 121.64C253.07 117.225 252.073 117.225 241.819 121.355C235.695 123.776 228.86 125.058 226.439 124.203C224.16 123.206 222.166 123.634 222.166 125.058C222.166 126.339 217.751 132.036 212.197 137.448C203.083 146.562 200.804 151.974 202.086 161.516C202.228 163.509 200.519 165.076 198.098 165.076C192.402 165.076 182.29 144.996 182.148 133.175C181.578 106.544 184.284 88.742 190.408 78.3458C194.965 70.6554 195.962 66.5254 193.826 64.3892C187.987 58.5502 190.835 55.9868 197.101 61.3985L203.367 66.8103L198.525 59.1199C195.819 54.8475 193.683 49.0085 193.541 46.3026C193.541 43.4543 191.689 38.7547 189.411 35.764C184.142 28.9281 188.414 22.6619 198.383 22.6619C212.197 22.6619 243.101 39.894 236.55 44.024C232.135 46.5874 232.99 51.9992 237.404 50.2902C240.11 49.2933 241.107 51.1447 240.965 56.414C240.68 62.5378 239.113 64.1044 232.278 64.9589C224.872 65.8134 206.358 76.7792 212.34 76.7792C213.621 76.7792 210.346 80.0548 204.934 84.0424C192.544 93.1569 188.272 109.677 197.671 112.098C201.231 112.952 205.788 111.528 209.206 108.253C216.327 101.702 226.723 99.4231 225.726 104.692C225.157 107.541 226.296 107.683 230.711 105.262C233.844 103.553 236.408 100.847 236.408 99.1383C236.408 97.1445 234.556 97.4293 231.423 99.8503C226.723 103.553 226.723 103.411 231.423 97.8565C236.835 91.4479 238.116 82.4758 233.559 82.4758C227.863 82.4758 230.996 74.3582 239.256 67.8072C243.955 64.1044 247.801 59.5471 247.801 57.5533C247.801 52.5688 259.051 53.1385 260.903 58.123C263.324 64.3892 259.479 69.2313 255.064 65.5285C250.079 61.3985 242.531 69.8009 247.089 74.3582C251.076 78.3458 272.581 74.7854 274.432 69.8009C275.144 67.8072 270.872 61.2561 264.748 55.2747C258.767 49.4357 254.494 43.3119 255.491 41.7454C256.488 40.1788 255.918 39.7516 254.209 40.7485C249.51 43.5967 242.104 39.7516 242.104 34.4822C242.246 30.3522 242.531 30.3522 244.952 34.055C246.946 37.0457 247.658 37.3305 247.801 34.6246C247.801 28.9281 257.485 31.9188 259.621 38.3274C261.33 43.5967 261.472 43.5967 261.757 37.6153C262.042 30.0674 267.596 28.7857 267.881 36.1912C268.166 40.4636 268.451 40.3212 270.445 35.4791C272.581 30.2098 272.866 30.2098 274.147 36.9033C275.287 43.3119 275.571 43.3119 275.856 37.7578C276.283 30.4946 287.677 29.6401 287.677 36.7609C287.819 40.606 288.104 40.606 290.525 36.9033C292.804 33.3429 293.231 33.6277 293.373 38.3274C293.373 42.315 294.085 43.0271 295.794 40.3212C299.639 34.3398 308.042 39.4667 306.048 46.445C304.197 52.5688 304.197 52.5688 308.896 46.8723C313.454 41.3181 313.596 41.3181 311.745 48.2964C309.893 55.1323 310.036 55.2747 314.166 49.7205C318.153 44.5936 317.868 43.7392 310.89 38.7547L303.342 33.4853L311.602 35.3367C319.008 37.0457 319.577 36.7609 316.302 32.7733C314.308 30.3522 311.317 28.3584 309.608 28.3584C308.042 28.3584 304.482 26.3646 301.776 23.9436C295.082 17.8198 285.825 15.826 267.739 16.538C250.079 17.2501 218.891 13.9746 224.302 12.1232C232.135 9.27492 227.151 5.99939 217.466 7.56595C209.349 8.99009 206.216 8.1356 202.798 3.86318C198.81 -1.26373 198.668 -1.26373 200.519 3.72076ZM216.47 86.0362C216.47 88.03 215.188 91.4479 213.764 93.8689C210.203 99.4231 203.51 93.4417 206.073 86.8907C208.067 81.6213 216.47 80.9093 216.47 86.0362Z" fill="#0044AA"/>
<path d="M601.843 9.55974C603.409 13.4049 588.598 17.8198 585.18 14.5442C584.468 13.6897 580.908 12.6928 577.347 12.2656C573.929 11.9808 572.648 12.2656 574.641 13.1201C579.911 15.2563 579.056 20.668 573.787 18.6742C571.223 17.8198 564.672 20.0984 558.976 23.9436C553.422 27.7888 547.44 30.2098 545.874 29.2129C544.165 28.216 543.738 29.3553 544.877 32.0612C546.016 35.0519 544.734 37.1881 541.316 38.3274C535.05 40.3212 521.236 52.7112 521.236 56.414C521.236 57.8381 519.385 60.544 517.106 62.3954C514.827 64.2468 513.688 67.6647 514.543 69.9434C515.682 72.7916 514.827 73.5037 511.267 72.0796C508.419 71.0827 505.428 71.9372 503.862 74.2158C499.874 80.6244 500.871 83.4727 505.855 79.3427C509.985 75.9248 509.985 76.4944 505.998 86.1786C503.577 92.0176 502.437 96.7172 503.577 96.8596C504.716 96.8596 503.007 98.9959 499.874 101.417C495.886 104.55 495.317 106.259 497.738 107.256C502.722 109.107 502.153 113.807 496.883 113.807C494.462 113.807 493.18 114.946 494.035 116.513C494.889 117.937 494.462 119.931 492.753 120.928C491.187 121.925 490.047 125.485 490.047 128.903C490.332 134.884 490.332 135.027 492.753 129.472C494.462 125.627 495.317 125.2 495.459 128.048C495.602 130.327 496.456 135.454 497.453 139.157C499.162 145.138 498.592 145.85 493.18 144.426C489.763 143.571 487.769 143.856 488.481 145.138C489.335 146.42 488.481 147.986 486.629 148.556C482.784 149.838 485.917 156.531 490.19 156.531C491.756 156.531 492.326 155.249 491.329 153.683C490.19 151.832 491.899 151.832 496.171 153.825C503.577 157.101 513.688 172.624 511.125 176.754C510.27 178.178 510.128 179.317 510.982 179.317C511.837 179.317 513.973 176.612 515.682 173.336C518.103 168.779 518.103 167.782 515.682 169.206C513.973 170.345 512.691 170.203 512.976 168.779C513.831 163.509 512.549 159.095 510.27 160.519C507.137 162.513 513.688 115.943 519.385 96.5748C523.23 83.1879 528.357 75.4975 546.443 55.4171C549.007 52.5688 552.994 49.7205 568.09 39.7515L576.635 34.3398L580.053 42.0302C583.471 49.5781 583.471 49.5781 582.189 39.7515L580.765 29.7826L585.038 38.3274L589.31 46.8723L587.744 38.3274C585.892 28.7857 590.734 31.2067 593.44 41.1757C594.437 44.4512 594.722 43.5967 594.152 39.0395C593.582 34.6246 594.295 30.3522 595.719 29.4977C597 28.6432 598.282 31.6339 598.425 36.0488L598.852 44.024L600.988 35.4791L603.124 26.9343L603.836 35.4791L604.548 44.024L606.542 35.4791L608.678 26.9343L611.954 34.055C615.087 40.606 615.229 40.606 614.09 34.767C613.52 31.2067 614.09 28.3584 615.514 28.3584C616.938 28.3584 618.22 31.9188 618.363 36.1912L618.79 44.024L620.926 35.4791L623.062 26.9343L623.774 35.4791C624.202 41.7453 624.771 42.4574 625.768 38.3274C628.047 28.9281 633.316 25.795 631.607 34.6246C630.895 38.8971 631.322 41.7453 632.746 40.8909C634.028 40.0364 635.167 37.6153 635.167 35.3367C635.167 33.0581 636.307 31.2067 637.588 31.2067C639.013 31.2067 639.725 34.767 639.155 39.0395C638.585 43.7391 638.87 44.5936 639.867 41.1757C641.718 34.4822 646.561 28.6432 646.561 33.0581C646.561 38.6122 654.678 35.9064 657.669 29.3553C660.09 24.086 659.805 22.6618 656.672 22.6618C654.536 22.6618 652.257 21.5225 651.83 20.0984C650.975 17.6773 629.613 13.8322 612.381 12.9777C608.394 12.8353 605.545 11.1263 605.973 9.13249C606.4 7.13869 605.26 5.57214 603.551 5.57214C601.843 5.57214 601.13 7.42352 601.843 9.55974Z" fill="#0044AA"/>
<path d="M666.641 36.1912C655.533 41.8878 652.542 47.4419 659.235 50.1478C662.084 51.1447 666.498 49.4357 670.344 45.8754C673.904 42.5998 681.737 38.0426 688.003 35.764L699.254 31.6339L687.861 31.3491C681.594 31.3491 672.053 33.4853 666.641 36.1912Z" fill="#0044AA"/>
<path d="M572.505 44.736C572.363 49.0085 572.078 49.1509 569.657 45.4481C567.378 41.8878 566.951 42.1726 566.809 46.8723C566.666 51.5719 566.239 51.8568 563.96 48.2964C562.394 45.8754 561.254 45.3057 561.254 46.8723C561.254 48.4388 562.394 51.5719 563.96 53.993C565.954 57.1261 566.666 57.2685 566.809 54.5626C566.809 52.4264 568.09 51.5719 569.657 52.5688C571.223 53.5657 572.505 52.8536 572.505 51.1447C572.505 49.4357 573.644 48.7236 575.069 49.5781C576.493 50.4326 577.062 48.5812 576.208 45.4481C574.357 38.4698 572.505 38.0426 572.505 44.736Z" fill="#0044AA"/>
<path d="M676.467 49.863C667.068 55.1323 656.814 59.1199 653.681 58.835C650.548 58.5502 646.276 60.1168 644.282 62.5378C642.146 64.8164 641.291 65.2437 642.288 63.2499C645.848 56.2716 638.87 59.8319 635.025 66.9527C631.749 73.2189 631.749 74.643 635.31 76.9217C641.433 80.7668 649.409 80.1972 649.409 75.7823C649.409 61.6833 669.489 60.6864 676.325 74.5006C680.17 82.3334 680.17 82.903 675.755 81.1941C673.049 80.1972 671.768 80.1972 672.907 81.3365C675.613 84.0424 666.071 99.5655 661.656 99.5655C656.957 99.5655 656.814 90.451 661.514 85.4665C664.362 82.4758 664.22 82.0486 660.802 83.0455C657.954 84.0424 656.529 88.1724 656.529 95.2931C656.529 103.696 655.248 106.544 650.406 108.253C646.988 109.535 643.427 112.098 642.146 113.949C639.155 118.934 646.56 122.209 654.393 119.219C664.362 115.373 670.201 115.943 668.35 120.643C666.926 124.488 673.762 129.615 678.746 128.476C680.17 128.191 680.17 129.472 678.888 131.609C677.607 133.603 676.895 137.733 677.322 140.866C677.892 146.135 677.607 146.135 673.334 140.154C670.771 136.593 666.926 133.745 664.932 133.745C662.938 133.745 660.802 132.748 660.375 131.609C659.378 129.472 633.031 119.504 628.474 119.504C625.198 119.504 638.87 136.308 642.43 136.451C649.978 136.878 669.347 152.401 669.347 158.098C669.347 170.915 681.879 167.782 690.994 152.686C696.975 142.859 697.83 93.1569 692.275 82.7606C690.709 79.9124 690.282 76.6368 691.278 75.6399C694.981 71.9372 694.269 62.3954 690.566 65.5285C688.145 67.5223 684.727 67.3799 679.6 64.9589C672.053 61.5409 668.919 54.9899 676.183 57.6957C678.319 58.5502 684.3 54.8474 689.569 49.4357C701.105 37.6153 698.542 37.6153 676.467 49.863Z" fill="#0044AA"/>
<path d="M213.621 48.8661C213.621 50.4326 211.912 51.1447 209.776 50.2902C202.086 47.2995 197.386 53.2809 203.225 58.8351C208.352 63.8196 208.494 63.6772 206.643 56.8413C205.504 52.8537 205.789 51.0023 207.07 52.5689C208.352 54.1354 213.052 55.702 217.609 55.8444C222.593 56.1292 224.445 55.4171 222.309 53.993C219.46 52.284 219.46 51.572 222.451 50.5751C224.872 49.7206 223.875 48.5813 219.888 47.5844C216.47 46.7299 213.621 47.2995 213.621 48.8661Z" fill="#0044AA"/>
<path d="M288.246 47.5843C283.547 49.1509 289.243 56.8412 295.082 56.8412C297.361 56.8412 299.07 58.123 299.07 59.6895C299.07 61.2561 296.079 62.5378 292.234 62.5378C287.962 62.5378 284.971 64.5316 283.974 68.2344C282.835 72.934 283.404 73.3613 287.962 70.9402C292.376 68.6616 292.946 68.9464 291.379 72.934C290.098 76.2096 290.667 77.0641 292.946 75.6399C294.655 74.5006 296.222 71.6523 296.222 69.3737C296.222 66.0982 297.503 65.8133 301.491 68.092C304.482 69.6585 307.472 70.2282 308.184 69.5161C308.896 68.804 311.175 73.6461 313.311 80.3396C315.305 87.033 318.723 97.9989 320.859 104.692C324.989 117.937 326.129 142.29 322.426 142.29C316.729 142.29 319.435 155.962 325.416 157.67C340.655 161.658 373.837 159.664 371.986 154.68C369.707 148.983 365.862 131.894 361.59 110.104C358.884 96.1476 357.602 93.8689 353.33 95.2931C346.636 97.4293 322.995 71.6523 327.41 67.2375C332.11 62.5378 330.828 58.5502 326.129 62.5378C321.002 66.8102 320.432 62.3954 325.416 56.8412C328.407 53.4233 328.265 53.4233 323.85 56.6988C319.435 60.1168 317.156 59.6895 307.472 54.2778C301.348 50.7174 296.222 49.0085 296.222 50.2902C296.222 51.5719 295.225 51.1447 294.085 49.4357C292.946 47.7267 290.24 46.8722 288.246 47.5843Z" fill="#0044AA"/>
<path d="M555.415 53.993C555.415 55.7019 553.991 56.2716 552.282 55.2747C550.146 53.8506 549.719 55.4171 551.285 59.9744C553.279 66.2406 552.994 66.5254 548.01 62.6802C543.737 59.4047 543.31 59.4047 546.158 62.5378C551.428 68.5192 550.431 72.3644 544.734 67.8072C540.177 64.3892 540.177 64.3892 543.595 68.9465C547.867 74.3582 544.592 75.7824 538.895 71.0827C537.044 69.5161 537.329 70.513 539.75 73.2189C544.734 78.9155 558.548 67.6647 555.985 59.9744C555.131 57.5533 555.985 56.8413 557.836 57.9806C559.688 59.1199 561.112 58.6926 561.112 57.1261C561.112 55.5595 559.83 53.5657 558.264 52.5688C556.697 51.5719 555.415 52.284 555.415 53.993Z" fill="#0044AA"/>
<path d="M607.112 55.9868C602.555 56.9837 601.13 58.6926 602.27 61.8257C603.267 64.3892 601.415 69.0889 597.713 72.934C588.883 82.3334 592.586 83.7575 606.4 76.4944C613.948 72.6492 618.078 68.6616 617.508 65.8133C617.081 63.2499 617.793 59.5471 619.075 57.5533C621.353 53.8505 619.644 53.7081 607.112 55.9868Z" fill="#0044AA"/>
<path d="M628.189 64.1044C625.768 66.6678 623.774 69.8009 623.774 71.2251C623.774 72.7916 622.065 73.9309 620.071 73.9309C615.799 73.9309 603.124 86.6058 598.424 95.8627C594.152 104.408 594.437 117.795 599.421 129.615C604.406 141.578 602.697 142.575 596.858 131.039C591.873 121.497 590.876 95.1507 595.434 92.3024C597.428 91.1631 597.428 89.3117 595.149 86.4634C590.307 80.7668 586.746 81.4789 586.746 88.3148C586.746 91.5903 585.465 93.4417 583.898 92.4448C582.332 91.4479 581.05 92.0175 581.05 93.5841C581.05 95.1507 578.771 95.7203 576.065 94.7234C573.36 93.7265 571.935 93.8689 572.932 95.0082C573.929 96.1476 577.205 97.5717 580.053 97.9989C586.177 98.8534 585.892 107.113 579.341 121.07C573.502 133.602 575.068 144.996 583.186 146.989C589.595 148.556 595.291 155.819 595.291 162.37C595.291 164.364 593.298 164.934 590.307 163.794C587.601 162.797 590.022 165.931 595.719 170.63C608.109 180.884 616.369 200.252 616.226 218.909C616.226 233.862 600.703 267.614 594.01 267.614C590.592 267.614 590.449 269.181 593.013 276.444C597.285 288.692 591.019 295.243 579.199 290.97C571.508 288.122 571.366 287.979 577.917 287.837C587.174 287.41 584.895 285.843 571.793 283.565C563.391 281.998 561.112 282.568 561.112 285.843C561.112 293.249 552.14 294.103 524.369 289.119C518.957 288.122 513.546 286.698 512.264 285.843C510.982 284.989 509.843 286.271 509.843 288.549C509.843 293.676 541.174 301.651 564.672 302.648C577.774 303.075 581.05 304.215 581.05 308.06C581.05 310.623 583.898 313.329 587.459 314.041C593.013 315.038 592.87 315.323 586.177 315.608C581.904 315.893 572.505 314.041 565.1 311.478C557.836 309.057 540.889 306.778 527.36 306.493L502.722 306.066L501.298 297.521C499.447 286.983 487.341 283.28 486.629 293.106C486.344 296.239 486.06 300.512 485.917 302.506C485.775 304.5 483.781 306.921 481.36 308.06C477.8 309.626 477.942 309.911 482.072 310.196C487.484 310.339 486.344 323.868 479.793 334.549C477.8 337.682 476.66 342.524 477.088 345.23C477.657 347.936 476.803 349.502 475.379 348.648C473.954 347.651 473.527 345.8 474.382 344.375C475.236 342.809 474.666 341.67 472.958 341.67C471.391 341.67 469.967 344.518 469.967 348.078C469.824 353.205 469.397 353.632 467.261 350.214C464.982 346.797 463.843 346.654 460.852 349.645C458.004 352.493 458.431 353.632 463.558 354.914C469.967 356.623 472.53 361.608 467.119 361.608C465.552 361.608 464.413 364.456 464.555 368.016C464.84 373.428 465.125 373.57 466.264 369.013C467.403 364.598 468.258 364.313 470.394 367.589C472.673 370.865 472.958 370.865 472.53 367.304C471.676 358.19 472.958 353.063 476.375 353.063C481.502 353.063 480.79 376.704 475.663 383.112C473.242 385.96 472.815 387.527 474.666 386.388C476.66 385.248 478.512 388.524 479.651 396.072C481.645 408.177 480.221 412.877 474.951 412.877C472.53 412.877 472.673 411.88 475.094 409.459C476.945 407.607 478.512 404.047 478.512 401.626C478.512 398.92 476.945 400.059 474.666 404.332C472.53 408.177 471.391 412.307 471.961 413.446C473.527 416.579 506.852 414.158 510.27 410.741C513.973 407.038 507.849 407.323 502.01 411.025C500.016 412.165 498.45 411.88 498.45 410.313C498.45 408.747 500.728 406.041 503.434 404.332C507.849 401.484 507.707 401.199 502.01 402.48C498.45 403.193 496.313 402.623 497.168 401.199C498.022 399.775 502.295 398.493 506.425 398.35C510.697 398.35 512.549 397.496 510.555 396.784C508.561 395.929 506.995 393.508 506.995 391.23C506.995 389.094 508.561 387.242 510.555 387.242C512.976 387.1 512.833 386.388 509.985 384.536C507.707 383.112 504.431 382.685 502.865 383.682C501.156 384.679 501.44 383.539 503.434 381.118C505.286 378.697 506.425 376.276 505.855 375.564C503.434 372.858 501.868 347.366 504.004 345.942C505.428 345.23 505.998 339.391 505.286 333.125C504.716 326.859 505.57 321.732 506.995 321.732C508.561 321.732 509.985 324.58 509.985 328.14C510.27 334.264 510.412 334.264 512.691 328.852C514.827 324.153 515.112 324.865 514.827 332.413C514.542 337.54 513.261 341.67 511.837 341.67C510.555 341.67 510.27 344.233 511.267 347.366C512.264 350.499 513.546 356.623 514.115 360.896C514.685 365.168 515.397 369.298 515.539 370.152C515.824 370.865 516.251 381.118 516.536 392.939L516.964 414.301L526.22 415.155L535.477 416.152V398.778C535.477 387.1 536.617 381.403 539.038 381.261C547.013 380.406 554.276 380.976 559.688 382.827C565.384 384.821 565.384 384.821 559.688 381.261C556.555 379.267 552.282 375.707 550.288 373.143C548.152 370.722 547.298 370.295 548.295 372.289C549.292 374.282 548.864 375.849 547.298 375.849C545.731 375.849 542.598 376.561 540.319 377.416C536.901 378.697 536.047 375.137 535.762 358.19C535.477 346.797 534.908 334.834 534.623 331.843C534.053 326.574 535.62 326.289 556.839 327.143C582.759 328.14 582.759 328.14 577.062 333.837C574.641 336.258 573.075 338.679 573.36 339.249C573.644 339.818 572.363 338.394 570.369 336.115C567.378 332.698 566.808 333.267 566.808 339.676C566.808 344.233 564.53 348.79 561.112 350.927C557.979 352.778 555.415 355.341 555.415 356.623C555.415 360.611 566.951 358.759 568.66 354.487C569.514 352.208 571.651 351.069 573.217 352.066C574.926 353.063 575.496 352.636 574.499 351.069C571.651 346.512 592.016 324.58 599.136 324.58C611.811 324.438 618.078 321.447 615.514 316.462C610.102 305.924 609.105 289.973 613.52 284.989C631.749 264.766 639.582 220.475 631.037 185.441C624.059 156.816 624.629 155.677 643.57 162.37C662.084 168.921 660.802 168.779 660.802 164.364C660.944 162.37 652.969 153.683 643.427 144.996C629.328 132.178 625.768 127.336 625.483 120.073C625.198 111.956 620.926 106.401 620.926 113.949C620.926 115.658 619.644 116.228 618.078 115.231C612.523 111.813 615.087 95.4355 622.35 88.5996C626.48 84.612 629.471 78.6306 629.471 74.2158C629.471 69.9433 631.037 64.9588 632.889 63.1075C634.74 61.2561 635.452 59.6895 634.455 59.6895C633.601 59.6895 630.752 61.6833 628.189 64.1044ZM627.904 144.426C629.043 147.986 628.616 150.835 627.05 150.835C624.059 150.835 620.926 143.999 620.926 137.163C620.926 131.324 625.341 135.881 627.904 144.426Z" fill="#0044AA"/>
<path d="M280.271 86.4634C294.085 106.971 289.528 129.188 266.742 153.398C257.343 163.367 256.488 164.791 262.897 160.804C290.952 143.002 300.209 100.847 280.271 82.3334L272.723 75.3551L280.271 86.4634Z" fill="#0044AA"/>
<path d="M535.477 79.6275C538.61 81.6213 538.753 82.3334 536.047 82.4758C533.911 82.4758 533.056 83.6151 533.911 85.0392C534.765 86.321 532.629 88.1724 529.354 89.1693C525.651 90.0237 523.942 92.16 524.939 94.7234C525.793 97.002 525.081 100.278 523.372 101.987C520.524 104.835 518.103 116.086 513.688 146.277C512.406 154.822 512.834 156.816 515.682 154.965C518.388 153.398 518.815 154.11 517.391 157.955C516.109 161.373 517.391 164.934 521.094 168.494C524.369 171.485 526.933 175.615 526.933 177.608C526.933 184.872 518.245 202.389 515.397 200.68C511.267 197.974 506.995 201.819 508.846 206.519C511.409 213.212 525.936 200.964 529.923 188.574C534.338 174.76 537.756 170.773 543.025 172.766C546.016 173.906 546.301 175.33 544.165 177.466C538.895 182.735 540.604 190.711 547.155 190.711C551.713 190.711 552.709 189.429 551.428 185.726C550.431 182.878 552.567 184.16 556.27 188.574C559.83 192.847 563.96 196.407 565.527 196.407C568.802 196.407 581.904 218.481 583.186 226.172C584.325 233.435 586.177 235.144 589.595 231.726C593.298 228.023 589.737 207.8 585.322 207.8C581.05 207.8 578.344 201.676 577.917 191.138C577.917 187.008 577.062 185.156 576.35 187.15C575.353 189.714 573.36 189.856 569.372 187.72C563.248 184.444 561.966 178.748 567.948 181.026C572.932 182.878 576.777 168.779 572.505 163.794C567.805 158.098 554.988 159.237 553.279 165.361C551.57 172.197 549.007 172.197 542.598 165.076C539.75 161.943 533.768 159.379 529.354 159.379C519.812 159.379 519.527 157.67 525.224 129.472C530.635 102.983 534.623 90.451 538.753 87.8875C542.74 85.4665 539.892 76.7792 534.908 76.7792C532.344 76.9216 532.487 77.6337 535.477 79.6275Z" fill="#0044AA"/>
<path d="M419.979 142.005C420.976 143.714 420.264 145.138 418.128 145.138C416.134 145.138 414.425 148.271 414.425 152.116C414.425 159.095 414.568 159.095 444.332 159.095C464.27 159.237 472.815 158.24 469.967 156.531C466.549 154.253 466.976 153.825 472.103 153.683C475.663 153.683 478.512 151.974 478.512 149.695C478.512 146.705 475.663 145.85 468.685 146.42C462.704 146.989 457.434 145.85 455.583 143.429C452.877 140.154 451.595 140.296 448.177 143.856C442.766 149.126 437.639 149.126 426.815 143.429C421.973 141.008 418.983 140.296 419.979 142.005Z" fill="#0044AA"/>
<path d="M230.711 150.265C216.612 161.373 219.033 167.212 235.695 162.37C247.516 159.095 247.373 160.804 234.699 172.624C226.296 180.599 224.587 184.017 225.584 190.853C226.581 196.834 225.726 199.255 222.736 199.255C219.603 199.255 219.318 200.11 221.739 203.101C223.59 205.237 224.16 207.658 223.163 208.655C220.6 211.361 220.315 230.302 222.878 228.735C227.151 226.029 224.872 231.583 220.03 235.286C216.47 238.135 216.185 238.989 219.175 238.419C221.739 237.992 223.59 240.271 223.733 244.258C224.018 247.819 226.581 252.518 229.572 254.655C233.986 257.93 234.271 259.069 230.853 263.057C226.439 268.469 234.556 277.156 241.677 274.593C243.671 273.881 248.513 273.311 252.358 273.311H259.336L253.782 262.345C243.386 242.265 240.822 216.63 246.519 191.423C251.219 170.345 252.073 162.37 251.076 149.268C250.507 141.435 241.534 141.863 230.711 150.265Z" fill="#0044AA"/>
<path d="M491.329 162.085C490.475 163.509 491.187 165.503 492.896 166.5C494.462 167.64 497.88 173.478 500.301 179.745C502.865 185.869 505.286 190.426 505.998 189.856C506.567 189.286 505.143 184.017 502.722 178.178C500.301 172.482 498.877 166.643 499.731 165.218C500.586 163.937 499.447 162.085 497.168 161.231C494.747 160.376 492.183 160.804 491.329 162.085Z" fill="#0044AA"/>
<path d="M297.646 168.636C279.559 178.748 272.581 195.125 274.575 222.754C276.568 251.379 285.113 271.602 294.228 268.896C316.587 262.203 341.794 252.234 341.794 249.955C341.794 248.531 344.073 247.534 346.779 247.819C358.457 248.958 364.58 247.391 364.58 243.404C364.58 240.271 366.717 239.416 371.416 240.271C378.395 241.552 378.964 239.701 374.549 229.732C373.41 226.884 370.704 225.175 368.71 226.029C366.574 226.741 361.59 224.89 357.602 221.614C349.769 215.491 346.921 220.048 353.899 227.596C356.748 230.587 356.748 231.014 353.899 229.447C351.621 228.023 350.339 229.447 350.339 233.292C350.339 236.71 348.488 239.131 345.782 239.131C342.506 239.131 341.652 237.422 342.649 233.435C343.503 230.302 342.933 227.026 341.509 226.172C340.085 225.317 338.803 227.453 338.661 231.156C338.661 234.717 337.807 236.141 337.094 234.147C336.24 232.153 334.389 230.587 332.964 230.587C331.256 230.587 331.398 232.723 333.107 236.141C337.379 243.831 337.237 243.974 325.417 246.252C313.169 248.531 311.745 247.961 312.742 241.837C313.169 239.416 310.036 234.432 305.906 230.871C301.776 227.169 299.497 223.466 300.779 222.469C302.203 221.472 303.627 218.624 304.054 216.345C304.624 213.497 303.342 213.924 300.352 217.769C297.931 220.902 296.506 225.744 297.219 228.45C297.931 231.156 297.361 233.435 295.937 233.435C292.376 233.435 292.804 225.602 297.219 210.649C299.355 203.528 300.494 195.98 299.64 193.844C298.643 190.995 300.067 190.283 304.482 191.423C309.751 192.847 310.178 192.42 307.472 189.002C303.342 184.16 309.039 175.33 314.308 178.321C316.16 179.46 316.729 179.175 315.59 178.036C314.451 176.754 314.735 173.478 316.16 170.63C318.153 166.927 317.726 165.218 314.451 163.937C308.896 161.801 311.033 161.231 297.646 168.636Z" fill="#0044AA"/>
<path d="M396.339 168.352C393.206 173.336 393.49 174.333 398.617 175.615C401.75 176.469 404.456 178.321 404.456 179.887C404.456 181.311 403.175 181.739 401.608 180.742C400.041 179.745 398.76 181.026 398.76 183.59C398.76 186.153 399.899 187.577 401.181 186.723C402.462 185.869 405.738 189.856 408.444 195.41C411.007 201.107 413.856 204.952 414.71 204.098C415.565 203.385 414.852 200.252 413.286 197.404C406.165 185.014 402.035 167.924 406.165 167.924C412.147 167.924 411.007 163.509 405.026 163.082C402.178 162.797 398.19 165.218 396.339 168.352Z" fill="#0044AA"/>
<path d="M419.267 186.723C416.989 189.286 416.704 190.711 418.698 190.711C420.549 190.711 420.976 192.277 419.695 194.271C418.27 196.834 418.983 196.692 422.258 193.986C426.388 190.711 427.243 191.138 428.809 197.404C429.806 201.249 432.369 205.237 434.648 206.091C439.205 207.8 439.917 204.667 436.072 200.537C434.648 199.113 433.082 195.553 432.512 192.704C431.942 189.856 430.376 187.72 428.952 188.005C427.527 188.147 425.676 187.15 424.679 185.584C423.682 183.875 421.546 184.444 419.267 186.723Z" fill="#0044AA"/>
<path d="M351.905 193.274C349.627 197.119 353.33 205.237 356.463 203.243C358.029 202.246 361.59 203.67 364.58 206.376C367.571 209.082 371.131 210.506 372.555 209.509C374.122 208.655 375.119 210.079 374.977 212.785C374.692 215.491 376.116 217.484 378.11 217.057C380.103 216.63 381.67 217.484 381.67 218.909C381.67 220.333 380.103 222.184 378.11 223.039C375.261 224.178 375.261 224.463 378.11 224.605C380.103 224.748 381.67 227.026 381.67 229.447C381.67 233.435 382.382 233.577 386.227 230.302C389.076 227.881 389.645 226.172 387.651 225.46C385.942 224.89 384.518 221.899 384.518 218.766C384.518 215.633 385.658 213.924 387.224 214.779C388.648 215.776 389.645 214.067 389.503 211.076C389.218 207.8 387.509 206.091 385.23 207.088C383.094 207.8 381.67 207.373 381.955 205.949C383.094 199.683 381.243 196.692 377.398 198.259C375.119 199.113 373.98 201.107 374.834 202.673C375.831 204.098 373.837 203.67 370.562 201.676C367.286 199.54 364.58 196.834 364.58 195.553C364.58 194.271 363.299 193.986 361.732 194.983C360.165 195.98 358.884 195.41 358.884 193.701C358.884 189.999 354.184 189.714 351.905 193.274Z" fill="#0044AA"/>
<path d="M454.444 193.274C453.589 194.556 455.725 196.407 459.001 197.404C463.416 198.543 464.555 200.537 463.558 204.81C462.704 207.943 462.989 210.649 464.413 210.649C465.694 210.649 467.546 213.07 468.4 215.918C469.54 219.478 472.388 221.045 476.945 220.475C484.208 219.763 489.193 228.878 483.496 232.438C481.787 233.577 481.36 233.008 482.499 231.014C483.639 229.162 483.923 227.738 483.211 227.738C482.357 227.738 479.793 231.583 477.515 236.283C474.951 241.41 474.382 244.828 476.233 244.828C478.084 244.828 477.8 246.537 475.521 249.243C472.388 253.088 470.821 252.376 463.416 243.261C457.007 235.429 454.159 233.862 451.738 236.426C449.459 238.989 449.602 240.128 452.165 241.125C454.159 241.837 455.013 243.689 454.159 245.113C453.304 246.537 453.732 247.676 455.298 247.676C456.865 247.676 458.859 246.11 459.713 244.116C460.568 242.122 460.995 243.119 460.425 246.252C459.998 249.385 458.004 251.521 456.01 251.094C453.874 250.667 454.871 253.515 458.431 258.073C461.707 262.345 463.416 266.475 462.276 267.329C459.143 269.75 458.716 279.007 461.707 279.007C463.131 279.007 464.27 281.713 464.27 284.846C464.27 288.407 462.989 289.973 461.137 288.834C459.143 287.552 458.431 288.834 459.001 292.11C461.28 304.072 468.97 299.373 474.097 282.71C483.923 251.237 484.351 250.809 505.001 246.395C509.416 245.398 512.121 243.404 511.267 241.837C508.988 238.277 518.388 234.574 520.809 238.135C522.945 241.125 528.357 241.41 531.063 238.704C532.202 237.707 529.069 235.144 524.227 233.008C513.83 228.45 513.688 227.738 522.66 221.187C531.347 214.921 543.025 219.193 539.607 227.311C532.344 244.401 534.623 247.819 547.155 238.989C551.713 235.713 555.415 234.432 555.415 236.141C555.415 241.98 567.378 244.258 572.647 239.416C576.778 235.429 576.92 234.005 573.502 228.593C571.366 225.032 569.657 220.333 569.657 217.912C569.657 215.491 567.805 213.497 565.384 213.497C563.106 213.497 561.112 212.215 561.112 210.791C561.112 209.224 559.118 208.797 556.555 209.794C553.991 210.649 550.858 209.652 549.434 207.515C547.583 204.382 547.013 204.81 546.871 209.367C546.871 216.345 537.471 217.912 532.487 211.93C528.072 206.519 524.227 206.661 517.96 212.5C515.112 215.063 509.7 217.484 505.855 217.912C501.868 218.339 497.595 219.478 496.029 220.333C494.462 221.33 492.753 220.902 492.326 219.336C491.756 217.912 487.626 216.203 483.211 215.633C475.806 214.636 462.846 196.55 469.397 196.407C472.815 196.265 463.131 190.853 459.428 190.711C457.577 190.711 455.298 191.85 454.444 193.274Z" fill="#0044AA"/>
<path d="M476.091 199.683C477.23 206.946 492.326 213.782 501.583 211.361C505.855 210.364 506.14 208.94 503.434 203.243C500.016 195.695 495.886 194.556 490.047 199.968C486.914 202.816 486.629 202.673 488.481 199.255C489.762 196.834 489.762 195.838 488.623 196.977C487.341 198.116 483.781 197.689 480.79 196.122C475.948 193.559 475.379 193.986 476.091 199.683Z" fill="#0044AA"/>
<path d="M405.311 217.342C405.738 226.599 407.02 229.732 410.153 229.162C412.574 228.878 414.141 227.738 413.713 226.741C413.286 225.745 412.147 221.045 411.15 216.345C408.444 202.816 404.599 203.385 405.311 217.342Z" fill="#0044AA"/>
<path d="M309.608 221.045C308.469 222.042 307.615 224.32 307.615 226.029C307.615 227.738 309.039 227.169 310.748 224.89C313.026 221.614 314.023 221.472 315.163 224.178C317.584 230.159 327.553 234.432 327.553 229.59C327.553 227.311 325.274 224.748 322.568 223.751C319.862 222.896 316.159 221.33 314.593 220.618C312.884 219.763 310.605 219.906 309.608 221.045Z" fill="#0044AA"/>
<path d="M390.215 248.958C390.215 249.812 392.636 252.946 395.627 255.936C413.428 273.738 408.871 309.057 389.076 306.778C382.24 306.066 374.549 306.636 371.986 308.06C366.717 311.051 300.352 312.475 297.503 309.769C295.652 307.917 320.859 303.503 358.599 298.945C391.069 295.1 401.038 285.701 391.781 267.757C385.943 256.648 382.667 256.791 380.104 268.326C377.825 278.865 371.986 288.407 369.422 285.843C368.568 284.846 363.583 286.271 358.457 288.834C352.76 291.54 346.067 292.822 341.367 291.682C336.667 290.685 329.689 291.825 323.992 294.531C318.723 296.952 311.887 299.657 308.896 300.37C305.906 301.082 297.788 302.933 290.81 304.642C283.974 306.351 277.708 307.063 276.853 306.208C275.002 304.215 291.807 297.379 308.612 293.106C330.401 287.552 321.429 286.698 296.222 291.825C283.547 294.388 271.299 295.955 269.305 295.1C267.169 294.246 258.197 295.243 249.51 297.379C234.983 300.654 233.559 300.654 233.559 296.24C233.559 291.54 219.318 279.007 214.049 279.007C212.624 279.007 209.207 282.568 206.358 286.84C201.374 294.531 201.374 294.673 206.928 289.688C220.03 278.153 223.306 287.552 212.767 306.066C205.646 318.599 197.813 321.304 198.241 311.051L198.383 304.5L191.832 310.766C185.281 316.89 183.002 324.295 187.275 324.865C203.51 326.716 218.179 326.716 220.6 324.865C225.869 320.592 242.104 318.171 242.104 321.589C242.104 325.292 270.302 322.586 274.717 318.599C278.705 314.896 291.664 315.465 295.652 319.453C298.5 322.301 313.026 323.868 343.93 324.438C347.633 324.58 349.057 354.202 345.924 365.88C343.218 375.707 300.352 373.713 292.946 363.459C289.386 358.332 262.042 350.784 247.943 350.927C240.11 351.069 234.271 351.923 235.268 352.778C236.835 354.344 237.974 354.772 245.237 355.484C247.516 355.769 247.373 357.193 244.952 360.183C242.959 362.462 242.247 364.598 243.243 364.741C249.937 366.165 252.5 365.88 255.349 363.744C257.342 362.32 259.479 362.462 260.476 364.171C261.473 365.738 266.03 366.592 270.729 365.88C275.287 365.31 279.132 366.022 279.132 367.447C279.132 369.013 281.126 370.152 283.547 370.152C285.968 370.152 287.392 371.149 286.68 372.289C285.968 373.428 290.383 374.282 296.506 373.998C302.63 373.713 307.615 374.71 307.615 376.134C307.615 379.409 282.835 379.552 280.698 376.134C279.844 374.852 274.432 373.57 268.451 373.428C262.612 373.286 254.921 372.574 251.361 371.861C247.801 371.149 244.952 371.577 244.952 373.001C244.952 374.282 248.37 375.849 252.5 376.419C256.773 376.846 260.618 378.84 261.33 380.691C262.612 384.536 243.386 383.967 239.826 379.979C238.686 378.84 239.398 378.697 241.25 379.694C243.528 381.118 244.24 379.267 243.671 373.713C243.101 369.44 241.25 366.165 239.541 366.592C237.832 367.019 236.408 366.022 236.408 364.456C236.408 362.889 237.689 361.608 239.256 361.608C240.822 361.608 242.104 360.468 242.104 359.187C242.104 357.762 239.256 357.05 235.696 357.335C226.723 358.332 226.723 358.19 230.996 363.459C234.556 367.589 233.275 367.874 215.9 366.45C197.101 364.883 184.284 369.44 194.253 374.14C196.247 375.137 195.107 375.422 191.547 374.71C187.987 374.14 184.426 374.71 183.43 376.276C182.433 377.843 175.597 378.27 167.479 377.131C157.51 375.991 153.807 376.276 155.089 378.412C156.228 380.264 154.519 381.546 150.959 381.546C147.684 381.546 145.547 380.549 146.259 379.409C148.538 375.707 107.238 377.416 100.117 381.261C93.1389 385.106 97.981 392.654 107.665 392.796C109.801 392.939 110.656 394.22 109.659 395.787C108.662 397.354 110.513 398.635 113.789 398.635C116.922 398.635 119.628 397.211 119.628 395.502C119.628 393.651 122.191 392.939 125.182 393.793C128.315 394.505 130.736 394.363 130.594 393.366C129.597 385.248 131.448 383.682 135.436 389.521C140.705 396.926 143.981 397.496 146.402 391.087C147.968 387.242 147.541 386.957 143.838 390.09C140.848 392.654 139.566 392.654 139.566 390.375C139.566 384.394 148.253 383.539 152.81 388.951C155.944 392.796 156.798 393.081 155.801 389.948C154.804 386.53 156.798 385.391 164.346 384.821C169.9 384.536 175.17 384.109 176.166 383.967C183.287 383.112 188.984 384.679 185.851 386.815C183.857 387.954 177.163 388.666 170.897 388.097C164.631 387.669 159.504 388.239 159.504 389.378C159.504 392.654 178.16 393.224 190.693 390.375C202.94 387.669 209.207 393.081 199.95 398.493C195.677 401.056 195.82 401.341 201.231 401.341C207.782 401.484 212.34 394.22 207.64 391.372C203.652 388.951 210.061 381.546 216.185 381.546C218.748 381.546 223.733 379.552 227.008 377.273C230.996 374.567 233.844 373.998 234.983 375.849C235.98 377.416 235.126 378.697 232.99 378.84C230.711 378.84 231.281 380.406 234.556 382.827C238.401 385.676 245.665 386.53 259.479 385.818C277.708 384.821 278.989 385.106 276.426 389.806C273.435 395.36 284.828 396.926 289.671 391.657C290.952 390.375 288.958 389.948 285.256 390.945C280.271 392.084 278.989 391.515 280.271 388.239C281.268 385.818 281.98 383.397 281.98 382.685C281.98 378.697 290.525 382.543 291.949 387.242C294.228 394.648 299.07 394.648 299.07 387.242C299.07 383.397 300.921 381.546 304.766 381.546C307.9 381.546 310.463 382.827 310.463 384.394C310.463 386.103 313.026 386.103 317.584 384.394C323.85 381.973 324.562 382.4 323.708 387.954C323.138 391.23 321.002 394.505 318.723 395.075C315.59 395.929 315.732 395.502 319.008 393.224C322.711 390.518 322.711 390.233 318.581 390.09C315.875 390.09 313.169 391.657 312.314 393.651C311.46 395.787 310.89 395.217 310.748 392.227C310.463 385.818 307.187 385.96 301.348 392.654C296.934 397.923 297.218 398.208 311.887 399.063C320.147 399.632 326.413 399.063 325.559 397.781C324.847 396.499 326.698 394.79 329.689 393.936C333.961 392.796 334.816 390.803 333.819 385.106C332.537 378.555 332.822 378.128 336.81 381.688C339.231 383.967 340.655 386.815 339.943 387.954C339.231 389.094 340.228 390.233 342.364 390.233C344.358 390.375 343.218 391.657 339.658 393.081C336.098 394.505 332.395 397.638 331.398 400.059C330.543 402.338 327.98 404.332 325.844 404.332C323.708 404.332 321.856 405.614 321.856 407.18C321.856 412.022 344.642 410.598 345.07 405.756C345.354 400.914 345.354 401.199 349.627 385.818C351.478 379.552 352.76 372.431 352.618 370.152C351.193 351.639 353.472 346.654 370.704 328.568C388.791 309.769 401.608 304.357 401.608 315.608C401.608 318.456 404.741 326.716 408.444 333.837C412.289 340.958 414.853 347.651 414.283 348.506C413.571 349.502 415.28 348.221 417.986 345.657C421.688 342.239 421.973 340.673 419.41 339.676C417.416 338.964 415.707 334.264 415.565 329.28C415.28 324.295 414.568 322.586 413.856 325.292C411.719 333.41 407.447 330.989 408.159 322.016C408.729 312.76 421.688 309.484 453.589 310.339C475.663 311.051 477.942 310.766 473.242 307.775C471.106 306.493 466.549 305.924 463.273 306.636C458.716 307.633 458.147 307.205 460.995 305.212C467.261 300.797 459.571 298.233 452.165 302.363C445.187 306.351 430.091 307.633 430.091 304.357C430.091 303.218 427.1 298.661 423.397 294.246C419.695 289.688 415.707 281.571 414.425 276.159C412.004 264.339 390.215 239.986 390.215 248.958ZM263.039 308.772C265.175 314.184 259.621 317.602 255.491 313.472C253.782 311.763 249.937 310.339 247.089 310.339C244.098 310.339 242.531 309.057 243.528 307.49C246.234 303.075 261.188 304.072 263.039 308.772ZM128.173 387.669C128.173 388.951 124.328 390.09 119.628 390.09C114.928 390.09 111.083 388.951 111.083 387.385C111.083 385.96 114.928 384.821 119.628 384.964C124.328 385.106 128.173 386.388 128.173 387.669Z" fill="#0044AA"/>
<path d="M504.146 253.23C501.013 255.367 503.292 256.079 513.118 256.221C520.951 256.221 526.933 257.645 527.645 259.639C528.357 261.918 529.354 261.633 530.351 258.642C531.347 256.221 530.635 254.085 528.784 253.942C526.933 253.658 521.663 252.803 516.964 251.949C512.264 251.094 506.567 251.664 504.146 253.23Z" fill="#0044AA"/>
<path d="M444.048 257.076C443.905 257.36 443.335 261.206 442.623 265.62L441.199 273.596L447.038 267.757C450.314 264.481 452.877 261.348 452.877 260.778C452.877 259.639 444.475 255.936 444.048 257.076Z" fill="#0044AA"/>
<path d="M532.344 263.342C530.778 269.181 531.632 272.172 535.477 273.88C544.449 277.868 546.586 276.586 543.025 269.038C540.177 262.915 533.341 259.212 532.344 263.342Z" fill="#0044AA"/>
<path d="M190.835 269.608C190.835 273.453 178.16 277.868 170.897 276.586C167.479 276.017 167.337 276.444 170.47 278.58C173.033 280.289 173.318 281.713 171.324 282.995C169.615 283.992 169.046 286.983 170.043 289.546C171.324 292.822 170.755 293.534 168.049 291.825C165.628 290.401 165.058 290.685 166.197 292.537C167.194 294.246 166.767 296.097 165.2 296.524C163.634 297.094 165.058 299.23 168.476 301.366C173.745 304.784 174.315 304.642 172.891 300.654C171.894 298.091 172.464 296.097 174.03 296.097C175.597 296.097 176.166 294.815 175.169 293.249C174.173 291.682 175.312 291.113 177.591 292.11C183.43 294.246 192.971 288.692 195.107 281.856C196.104 278.723 198.098 276.729 199.38 277.583C200.804 278.438 202.655 277.868 203.652 276.159C204.649 274.593 203.083 273.311 200.234 273.168C196.104 273.168 196.532 272.314 202.086 269.181L209.064 265.336L199.95 265.763C194.823 265.905 190.835 267.614 190.835 269.608Z" fill="#0044AA"/>
<path d="M342.933 268.896C339.8 276.871 343.076 283.28 350.339 283.28C356.32 283.28 357.602 281.713 358.314 274.023C359.311 264.054 346.351 259.639 342.933 268.896Z" fill="#0044AA"/>
<path d="M849.216 283.992C849.216 289.831 848.504 300.37 847.649 307.205C846.51 317.032 846.937 319.026 849.643 316.32C853.346 312.617 855.197 273.311 851.637 273.311C850.355 273.311 849.358 278.153 849.216 283.992Z" fill="#0044AA"/>
<path d="M809.91 280.432C809.055 282.71 806.919 283.849 805.068 282.853C803.074 281.713 803.216 282.568 805.352 284.846C810.195 289.973 809.91 294.815 805.068 290.685C800.653 287.125 781 288.692 776.442 293.249C774.591 295.1 774.733 296.097 777.297 296.097C780.43 296.097 780.43 296.952 777.582 300.37C774.449 304.072 774.733 304.5 779.291 302.791C783.848 301.082 784.133 301.366 781.142 305.069C779.291 307.49 778.436 310.339 779.433 311.335C780.572 312.332 783.705 309.342 786.411 304.784C795.383 290.116 802.647 288.549 804.925 300.654C807.346 313.614 812.473 306.066 814.467 286.84C814.467 285.701 817.173 284.704 820.306 284.704C826.572 284.704 827.854 280.574 822.727 277.298C820.448 276.017 820.164 276.586 821.73 279.292C823.581 282.568 823.297 282.568 820.164 279.719C815.037 275.02 811.904 275.162 809.91 280.432Z" fill="#0044AA"/>
<path d="M838.107 284.134C834.547 287.837 832.268 291.825 833.123 293.249C833.977 294.531 833.265 296.524 831.699 297.521C828.423 299.515 830.56 304.642 834.69 304.642C837.823 304.642 846.51 284.846 845.371 280.574C844.943 278.865 841.668 280.574 838.107 284.134Z" fill="#0044AA"/>
<path d="M766.331 295.527C764.052 296.382 760.777 298.091 759.21 299.515C757.501 300.797 753.656 303.93 750.523 306.351C745.111 310.481 745.396 310.623 755.08 309.342C762.628 308.345 765.191 309.057 765.191 312.19C765.191 314.469 763.767 315.75 761.916 315.038C760.065 314.326 756.789 314.896 754.51 316.32C751.805 318.029 754.368 318.741 762.628 318.883C769.322 318.883 774.733 317.459 774.733 315.893C774.733 314.184 773.167 313.756 771.173 315.038C768.325 316.747 768.325 316.178 771.03 312.902C775.73 307.205 772.027 293.676 766.331 295.527Z" fill="#0044AA"/>
<path d="M801.934 316.32C802.931 317.886 800.652 318.599 796.238 317.744C791.965 316.89 789.544 317.602 790.541 319.168C791.396 320.592 793.105 321.304 794.244 320.592C795.383 319.88 797.947 321.874 799.94 325.007C801.934 328.283 802.361 330.134 800.795 329.137C799.228 328.14 797.235 328.425 796.38 329.849C795.383 331.273 797.947 333.125 801.934 333.837C805.779 334.549 809.767 334.122 810.621 332.698C811.476 331.416 810.764 330.276 809.055 330.276C807.488 330.276 806.064 328.995 806.064 327.428C806.064 325.862 808.343 325.007 811.049 325.434C816.888 326.289 831.414 335.831 827.284 336.115C822.727 336.543 835.544 341.242 841.668 341.385C850.213 341.67 854.912 337.682 852.776 331.985C851.494 328.568 848.646 327.286 844.089 328.14C840.386 328.852 837.395 328.568 837.395 327.428C837.395 325.434 823.011 318.456 816.033 317.032C814.467 316.605 810.337 315.75 806.634 314.896C802.931 314.041 800.937 314.611 801.934 316.32Z" fill="#0044AA"/>
<path d="M634.74 318.883C631.892 320.592 630.61 323.868 631.465 327.428C632.319 330.561 634.313 332.27 635.879 331.273C637.588 330.134 638.016 330.846 636.876 332.698C635.737 334.549 632.889 335.973 630.61 335.973C627.904 335.973 627.05 334.691 628.474 332.413C629.898 329.992 629.044 330.134 625.768 332.698C620.356 337.112 619.217 344.518 623.917 344.518C625.626 344.518 626.053 343.094 624.914 341.242C623.632 339.249 624.201 338.679 626.053 339.961C627.762 340.958 634.028 339.676 640.009 336.97C645.991 334.264 655.105 330.704 660.232 328.995C671.625 325.434 672.337 320.45 661.514 319.738C657.242 319.453 650.548 318.456 646.561 317.602C642.715 316.747 637.304 317.317 634.74 318.883Z" fill="#0044AA"/>
<path d="M720.331 317.317C719.619 317.886 711.074 318.883 701.39 319.311C691.563 319.88 683.588 321.02 683.588 322.016C683.588 323.013 677.464 326.147 670.059 328.995C662.653 331.843 658.096 334.549 659.947 335.261C661.799 335.831 668.777 333.837 675.471 330.704C683.161 327.286 689.427 326.004 692.133 327.428C698.114 330.561 709.365 328.14 717.768 321.589C721.755 318.599 724.176 316.178 723.179 316.035C722.325 316.035 721.043 316.605 720.331 317.317Z" fill="#0044AA"/>
<path d="M727.167 319.738C726.17 321.304 726.882 321.732 728.734 320.592C730.585 319.453 732.009 319.738 732.009 321.162C732.009 322.729 728.022 324.722 723.322 325.577C718.48 326.574 715.347 328.71 716.344 330.276C719.049 334.691 725.6 333.694 731.155 327.713C736.994 321.589 745.823 318.883 745.966 323.156C745.966 327.143 763.767 330.419 769.037 327.286C774.021 324.295 773.594 324.153 761.062 323.441C755.935 323.156 750.665 321.447 749.526 319.738C747.105 315.75 729.73 315.75 727.167 319.738Z" fill="#0044AA"/>
<path d="M781.142 324.865C783.99 326.431 785.557 328.852 784.702 330.134C783.99 331.558 786.411 331.131 790.257 329.28C798.659 325.292 797.662 324.153 785.557 322.871C778.009 322.016 777.154 322.444 781.142 324.865Z" fill="#0044AA"/>
<path d="M443.905 333.552C440.06 339.249 439.49 339.249 434.933 334.691C432.227 331.985 428.382 330.419 426.53 331.273C423.967 332.27 423.967 332.698 426.815 332.84C429.521 333.125 429.948 334.264 427.955 336.685C424.109 341.527 421.546 353.49 424.679 351.496C426.103 350.642 427.243 347.936 427.243 345.657C427.243 343.094 428.667 342.239 430.518 343.379C432.654 344.66 433.082 344.091 431.657 341.812C429.948 339.249 430.945 338.679 435.218 340.103C438.351 341.1 441.911 340.53 442.908 338.821C443.905 337.255 445.614 336.4 446.753 337.112C447.893 337.824 448.747 335.973 448.747 332.982C448.747 326.146 448.747 326.146 443.905 333.552Z" fill="#0044AA"/>
<path d="M606.827 332.555C606.827 334.549 601.842 340.673 596.003 346.085C585.037 356.196 584.895 358.617 595.861 352.351C607.396 345.657 611.526 340.103 609.248 334.407C608.108 331.273 606.969 330.561 606.827 332.555Z" fill="#0044AA"/>
<path d="M679.316 335.973C673.049 338.821 664.932 341.385 661.372 341.527C657.669 341.527 652.684 343.663 650.263 346.084C646.418 350.072 646.703 350.214 654.108 348.648C658.523 347.651 666.641 346.369 672.053 345.8C685.582 344.233 688.43 342.951 691.991 336.115C695.836 329.137 694.127 329.137 679.316 335.973Z" fill="#0044AA"/>
<path d="M734.003 341.527L726.028 349.36L734.43 348.79C743.545 348.221 757.644 340.388 757.644 335.973C757.644 330.134 741.693 333.979 734.003 341.527Z" fill="#0044AA"/>
<path d="M766.9 341.67C764.906 344.803 761.631 347.366 759.78 347.366C757.786 347.366 751.377 349.93 745.538 353.063C734.857 358.759 721.47 359.044 722.609 353.632C723.037 352.066 720.616 351.496 717.483 352.351C713.922 353.205 712.356 355.341 713.353 357.905C714.349 360.468 713.637 361.18 711.359 359.756C706.089 356.481 688.857 358.759 682.306 363.459C676.61 367.447 676.61 367.589 683.588 366.022C698.114 362.889 713.495 363.032 712.925 366.307C712.498 368.016 716.058 370.152 720.616 370.722C725.173 371.434 728.164 370.865 727.452 369.583C726.17 367.589 730.3 366.165 735.427 366.877C736.566 367.162 738.845 364.741 740.554 361.608C742.263 358.332 746.535 355.911 750.38 355.911C754.225 355.911 759.21 353.917 761.773 351.496C764.194 348.933 766.188 347.936 766.188 349.075C766.188 350.215 768.752 348.79 771.885 345.942C775.018 343.094 777.581 339.676 777.581 338.394C777.581 333.837 770.461 335.973 766.9 341.67Z" fill="#0044AA"/>
<path d="M795.383 339.391C796.665 342.809 794.956 344.945 789.544 346.939C784.56 348.79 783.705 349.787 786.839 349.93C789.544 350.072 791.823 351.496 791.823 353.063C791.823 354.629 793.959 355.911 796.523 355.911C799.229 355.911 800.51 355.057 799.513 354.06C798.517 353.063 798.801 350.214 800.226 347.651C801.792 344.66 801.08 341.67 798.089 338.964C794.102 335.261 793.817 335.261 795.383 339.391Z" fill="#0044AA"/>
<path d="M806.064 341.812C806.064 343.379 807.489 344.518 809.055 344.518C810.907 344.518 811.334 346.939 810.194 350.642C808.913 354.629 809.34 356.053 811.476 354.629C813.185 353.632 814.609 350.784 814.609 348.363C814.609 345.23 816.318 344.66 821.018 346.084C824.578 347.224 826.572 347.224 825.718 346.227C822.442 342.667 806.064 339.106 806.064 341.812Z" fill="#0044AA"/>
<path d="M25.6346 347.224C23.3559 348.79 18.5138 349.218 15.0959 348.363C8.11761 346.654 0.996899 351.923 0.996899 358.759C0.996899 364.456 38.167 363.459 56.1112 357.335C72.7737 351.639 80.8913 351.781 78.6126 357.62C77.6157 360.041 76.9037 362.462 76.9037 363.032C76.9037 363.601 72.4888 363.317 66.9347 362.462C58.8171 361.18 56.9657 361.75 56.9657 365.738C56.9657 369.44 55.5415 370.01 50.557 368.443C39.0215 364.598 28.198 364.883 26.6315 369.013C25.777 371.149 23.0711 373.001 20.7925 373.001C18.0866 373.001 17.0897 371.292 18.0866 368.728C19.938 364.029 15.5231 362.747 12.8173 367.304C11.8204 368.871 8.54485 370.152 5.55415 370.152C2.42104 370.152 0 371.577 0 373.143C0 374.852 1.42414 375.279 2.9907 374.282C8.40244 371.007 19.5107 375.707 21.5045 382.115L23.4983 388.239L27.2011 381.403C29.1949 377.558 30.1918 373.57 29.4797 372.289C28.7677 371.149 31.4735 370.152 35.6035 370.152H43.0091L35.0339 377.416C29.0525 382.97 28.6253 383.967 33.0401 381.83C36.458 380.264 40.1608 379.837 41.4425 380.976C42.5818 382.115 42.8667 381.546 41.8698 379.694C40.7305 377.843 42.5818 376.561 46.8543 376.561C53.8326 376.561 54.1174 383.112 47.1391 387.954C42.8667 390.945 62.3774 388.381 72.0616 384.536C81.8882 380.834 83.4547 380.834 81.3185 384.109C80.464 385.533 82.3154 386.103 85.4485 385.248C92.142 383.539 95.4175 379.694 90.2906 379.552C88.4392 379.552 83.882 378.555 80.0368 377.416C75.9068 375.991 74.0554 376.276 75.0523 378.128C76.0492 379.694 73.913 381.688 70.495 382.543C60.3836 385.391 56.9657 384.679 56.9657 380.121C56.9657 377.7 58.2474 375.849 59.814 375.849C61.3805 375.849 62.6622 377.273 62.6622 378.982C62.6622 380.691 64.2288 381.403 66.2226 380.834C68.2164 380.121 69.4981 377.558 68.9285 374.995C67.9316 369.298 74.0554 365.453 76.7613 370.01C78.3278 372.574 80.1792 372.289 83.5971 368.728C86.1606 366.165 88.2968 365.453 88.2968 367.304C88.2968 369.013 89.7209 369.583 91.4299 368.586C93.1389 367.447 95.7023 368.301 97.1265 370.437C99.1203 373.57 99.5475 373.428 99.6899 369.583C99.6899 366.877 97.4113 363.459 94.7054 361.892C90.5754 359.471 91.4299 358.902 99.1203 358.902C105.244 358.759 107.95 359.899 106.668 361.892C105.244 364.029 106.241 364.171 110.086 362.32C115.925 359.329 122.761 360.753 126.037 365.595C127.318 367.589 128.03 367.304 128.173 364.598C128.173 361.75 129.597 362.462 132.588 366.735C137.43 373.57 157.368 375.849 161.07 369.868C162.067 368.159 166.055 367.589 170.043 368.586C174.6 369.725 176.451 369.298 175.169 367.447C172.891 363.601 175.454 363.601 182.433 367.304C186.705 369.583 189.126 369.013 193.683 364.456C198.81 359.329 198.953 358.759 194.395 358.475C191.69 358.475 180.439 358.047 169.473 357.62C158.507 357.335 129.455 354.914 104.817 352.208C56.8233 347.081 37.0277 346.654 37.8822 351.069C38.167 352.493 36.1732 354.06 33.4673 354.629C27.6284 355.484 27.0587 352.778 31.9008 347.936C35.8884 343.948 31.7584 343.521 25.6346 347.224Z" fill="#0044AA"/>
<path d="M436.927 347.793C435.645 349.787 436.215 350.357 438.208 349.075C440.06 347.936 441.484 348.221 441.484 349.787C441.484 351.354 439.917 353.205 437.924 354.06C435.218 355.057 435.218 355.484 437.781 355.626C439.775 355.769 440.63 358.047 439.633 360.896C438.351 365.026 438.636 365.168 441.057 361.75C442.623 359.471 443.193 356.338 442.339 354.914C441.342 353.348 442.054 353.063 443.763 354.202C445.472 355.199 446.611 360.468 446.184 365.88C445.756 371.149 446.469 374.852 447.75 374.14C452.592 371.149 450.171 351.639 444.475 348.078C440.345 345.515 438.351 345.515 436.927 347.793Z" fill="#0044AA"/>
<path d="M703.526 347.366C701.248 348.933 695.409 350.357 690.709 350.357C686.009 350.499 676.752 350.784 670.059 351.069C663.365 351.211 657.954 352.351 657.954 353.632C657.954 356.338 704.096 354.772 708.795 351.923C712.498 349.645 713.21 344.518 709.935 344.518C708.795 344.518 705.947 345.8 703.526 347.366Z" fill="#0044AA"/>
<path d="M593.867 358.047C586.034 360.041 576.92 361.038 573.502 360.183C570.084 359.471 565.954 360.611 563.818 363.174C560.827 366.735 561.112 367.162 565.384 365.453C569.372 364.029 570.084 364.456 568.233 367.589C566.951 369.725 566.951 370.58 568.233 369.44C571.223 366.735 578.629 372.858 576.493 376.276C575.638 377.7 576.635 378.555 578.771 377.985C583.898 376.988 586.747 369.156 582.759 366.592C581.05 365.453 584.468 364.456 590.449 364.456C597.997 364.456 600.703 363.459 599.279 361.18C597.997 359.044 598.567 358.617 600.988 360.183C605.545 363.032 621.496 363.317 625.91 360.611C629.613 358.332 638.016 361.18 638.016 364.741C638.016 367.019 631.607 368.586 625.91 367.589C624.771 367.447 623.774 368.871 623.774 370.865C623.632 373.286 622.777 373.001 620.926 370.152C619.075 367.304 618.22 367.019 618.078 369.44C618.078 371.434 615.372 373.001 612.239 373.001C608.963 373.001 607.112 371.719 608.109 370.152C609.106 368.586 607.966 368.016 605.688 369.013C603.267 369.868 600.703 372.431 599.849 374.852C598.852 377.131 599.421 378.27 600.988 377.273C602.554 376.276 603.836 376.561 603.836 377.843C603.836 379.267 606.969 380.549 610.815 380.834C614.66 381.261 619.075 381.83 620.499 382.258C621.923 382.685 623.062 381.83 622.777 380.406C622.492 378.982 626.907 376.276 632.319 374.425C637.873 372.574 642.43 369.298 642.715 367.019C643.57 358.047 643.855 357.335 645.848 360.468C646.988 362.177 654.393 364.456 662.226 365.595C674.189 367.162 675.613 366.877 670.771 363.886C659.52 357.05 640.579 353.917 625.768 356.623C617.935 358.047 610.815 358.047 609.818 356.766C608.821 355.341 601.7 355.911 593.867 358.047Z" fill="#0044AA"/>
<path d="M773.024 355.769C772.312 356.481 769.606 357.193 766.9 357.478C755.65 358.332 743.402 362.177 743.402 364.741C743.402 366.45 745.396 366.45 748.671 364.741C751.947 362.889 754.938 362.889 756.647 364.598C758.213 366.165 764.337 365.31 772.597 362.177C788.832 355.911 791.681 353.49 781.854 354.06C777.724 354.345 773.736 355.057 773.024 355.769Z" fill="#0044AA"/>
<path d="M845.94 365.738C845.94 369.868 837.396 370.153 828.566 366.307C826.145 365.168 820.591 365.595 816.318 367.162C811.903 368.871 807.346 369.583 806.207 368.728C804.925 368.016 802.362 369.156 800.51 371.434C797.662 374.852 801.365 375.422 825.86 375.422C854.628 375.279 857.476 374.425 850.925 367.447C848.077 364.314 848.077 364.029 851.352 365.88C854.058 367.447 854.628 367.162 853.346 364.883C850.498 360.326 845.94 360.753 845.94 365.738Z" fill="#0044AA"/>
<path d="M682.164 370.152L673.619 372.289H682.164C686.864 372.289 694.554 371.292 699.254 370.152L707.799 368.016H699.254C694.554 368.016 686.864 369.013 682.164 370.152Z" fill="#0044AA"/>
<path d="M713.353 377.273C708.083 381.403 708.226 381.403 715.204 378.982C720.901 376.846 723.749 377.416 727.309 380.976C730.158 383.824 732.009 384.252 732.009 382.258C732.009 379.409 723.607 373.001 719.904 373.001C719.334 373.001 716.343 374.995 713.353 377.273Z" fill="#0044AA"/>
<path d="M407.304 378.697C407.304 380.264 405.453 381.546 403.032 381.546C400.469 381.546 398.902 383.967 399.044 387.954C399.329 392.796 399.757 393.081 400.753 389.378C402.178 383.539 406.165 382.827 408.301 387.954C409.013 389.948 409.868 387.954 409.868 383.682C410.01 379.409 409.583 375.849 408.729 375.849C408.017 375.849 407.304 377.131 407.304 378.697Z" fill="#0044AA"/>
<path d="M775.303 377.843C768.467 380.549 777.724 387.242 788.405 387.242C800.653 387.242 799.371 384.821 786.554 383.824C780.43 383.397 777.866 381.973 778.863 379.552C779.575 377.558 780.003 375.991 779.575 376.134C779.291 376.134 777.297 376.988 775.303 377.843Z" fill="#0044AA"/>
<path d="M7.12071 384.394C6.12381 386.103 4.13001 386.53 2.70587 385.676C1.13931 384.821 0 386.815 0 390.233C0 395.502 0.712071 395.929 4.27243 392.939C7.54795 390.233 9.54175 390.233 12.5324 392.796C14.9535 394.648 17.2321 394.933 18.229 393.366C19.0835 391.942 16.9473 389.948 13.5293 388.951C8.11761 387.527 7.83278 386.815 11.3931 384.394C13.9566 382.685 14.3838 381.546 12.2476 381.546C10.3962 381.546 8.11761 382.827 7.12071 384.394Z" fill="#0044AA"/>
<path d="M723.037 386.53C722.752 387.669 722.467 390.518 722.182 392.939C721.897 395.217 720.189 396.926 718.195 396.499C716.201 395.929 715.204 396.784 716.201 398.35C717.055 399.775 716.201 401.626 714.207 402.481C711.644 403.477 711.644 403.905 714.065 404.047C715.916 404.189 718.195 403.05 719.192 401.484C720.189 399.917 722.182 398.635 723.749 398.635C725.315 398.635 725.885 399.917 724.888 401.484C723.891 403.05 724.461 404.332 726.17 404.332C727.736 404.332 729.161 401.768 729.161 398.635C729.161 395.502 727.879 392.939 726.312 392.939C724.746 392.939 723.464 391.515 723.464 389.948C723.464 388.239 724.888 387.812 726.74 388.951C728.733 390.233 729.303 389.663 728.021 387.669C725.743 383.967 723.606 383.397 723.037 386.53Z" fill="#0044AA"/>
<path d="M25.6345 390.09C23.2135 391.657 22.5014 392.939 23.7832 392.939C25.2073 392.939 23.2135 395.502 19.5107 398.493C11.3931 405.329 20.65 407.465 29.0525 400.772C35.0339 396.072 31.7583 386.245 25.6345 390.09Z" fill="#0044AA"/>
<path d="M231.423 389.236C229.429 389.948 228.432 391.657 229.287 392.939C229.999 394.22 228.148 394.648 225.014 393.793C221.881 392.939 219.318 393.651 219.318 395.502C219.318 399.49 235.411 399.632 237.974 395.502C240.395 391.657 236.123 387.527 231.423 389.236Z" fill="#0044AA"/>
<path d="M688.43 395.502C689.997 401.626 689.427 402.196 683.303 400.487C679.601 399.49 674.901 398.635 672.907 398.635C670.913 398.635 669.347 396.642 669.347 394.363C669.347 389.094 665.359 388.809 661.229 393.936C657.241 398.635 659.805 401.626 665.786 399.347C668.919 398.208 669.632 398.778 668.065 401.199C666.783 403.477 662.938 404.047 657.384 402.765C650.833 401.341 648.981 401.768 649.978 404.759C650.69 406.895 655.675 408.747 661.087 408.889C666.356 409.174 673.049 410.171 675.755 411.31C679.031 412.734 681.309 412.022 682.449 408.889C684.87 402.623 689.57 403.05 687.433 409.316C686.294 412.592 687.433 412.022 690.709 407.75C693.415 404.047 694.839 400.344 693.842 399.347C692.845 398.493 694.127 395.502 696.548 392.796C700.678 388.239 700.535 387.812 693.842 388.239C687.718 388.666 687.006 389.663 688.43 395.502Z" fill="#0044AA"/>
<path d="M82.6002 395.929C82.6002 399.205 81.3185 401.056 79.7519 400.059C78.043 399.063 77.6157 397.069 78.4702 395.645C79.3247 394.078 78.755 392.939 77.0461 392.939C75.4795 392.939 74.0554 394.078 74.0554 395.502C74.0554 397.069 70.495 396.784 65.9378 395.075C61.2381 393.366 55.5415 392.939 52.4084 394.363C49.4177 395.645 45.8574 396.499 44.5756 396.214C43.2939 395.787 42.7242 397.211 43.4363 399.205C44.2908 401.768 39.4487 404.047 28.7677 406.326L12.8173 409.744L29.907 408.462C39.3063 407.607 48.2784 405.329 49.845 403.335C51.4115 401.199 54.2598 400.059 56.2536 400.772C58.2474 401.484 59.8139 400.629 59.8139 398.92C59.8139 397.211 60.9533 395.787 62.3774 395.787C63.8015 395.787 64.656 397.923 64.5136 400.487C64.2288 403.05 65.6529 405.471 67.7891 405.898C69.7829 406.326 70.0678 406.041 68.5012 405.329C63.5167 402.908 65.0833 399.917 71.2071 399.917C74.7674 399.917 76.4764 401.341 75.6219 403.477C74.0554 407.75 81.4609 408.462 84.0244 404.332C85.0213 402.765 88.1544 401.484 91.0027 401.484C96.6992 401.484 103.535 394.933 100.687 392.084C99.8323 391.087 97.1265 392.227 94.8478 394.505C90.5754 398.92 84.1668 397.354 87.0151 392.796C87.8695 391.23 87.2999 390.09 85.5909 390.09C84.0244 390.09 82.6002 392.796 82.6002 395.929Z" fill="#0044AA"/>
<path d="M241.962 398.778C238.971 404.332 239.398 404.617 249.794 402.765C261.757 400.487 265.602 398.635 258.054 398.635C254.921 398.635 253.924 397.354 255.206 395.075C256.773 392.227 256.346 392.227 253.355 395.075C248.798 399.347 243.813 399.775 246.377 395.787C247.373 394.22 247.516 392.939 246.661 392.939C245.807 392.939 243.671 395.645 241.962 398.778Z" fill="#0044AA"/>
<path d="M148.396 399.632C145.975 402.765 146.829 403.477 152.81 403.193C157.083 403.05 160.928 401.341 161.64 399.347C163.207 394.505 152.526 394.79 148.396 399.632Z" fill="#0044AA"/>
<path d="M172.321 398.635C165.058 400.487 165.913 400.914 178.73 401.199C186.99 401.341 193.683 400.202 193.683 398.635C193.683 395.36 184.996 395.36 172.321 398.635Z" fill="#0044AA"/>
<path d="M407.305 396.214C407.305 403.05 415.28 411.595 421.546 411.453C425.534 411.453 430.945 412.45 433.651 413.731C437.212 415.298 438.636 414.728 438.636 411.595C438.636 409.174 437.212 407.18 435.645 407.18C433.936 407.18 433.509 405.756 434.648 403.905C435.93 401.768 435.36 401.341 433.366 402.623C431.515 403.762 430.803 406.183 431.942 407.75C433.082 409.744 432.512 410.028 430.376 408.747C428.524 407.607 427.812 404.189 428.809 401.199C429.664 398.208 429.094 395.787 427.385 395.787C425.818 395.787 424.394 397.638 424.394 399.775C424.394 406.611 416.277 407.323 411.719 400.772C409.298 397.354 407.305 395.36 407.305 396.214Z" fill="#0044AA"/>
<path d="M631.18 399.632C632.604 403.335 631.18 404.332 624.059 404.332C619.217 404.332 615.229 403.05 615.229 401.484C615.229 399.917 612.951 398.635 609.96 398.635C607.112 398.635 604.833 400.487 604.833 402.908C604.833 406.326 605.545 406.468 609.105 403.62C612.666 400.629 613.093 400.914 611.669 404.759C610.387 408.319 612.096 410.313 618.22 412.449C626.195 415.298 627.904 414.586 626.907 409.032C626.622 407.607 630.325 407.038 635.167 407.75C640.009 408.462 644.567 408.035 645.421 406.753C646.276 405.329 645.563 404.332 643.854 404.332C642.288 404.332 640.721 402.053 640.579 399.347C640.437 396.214 639.867 395.645 638.87 398.066C637.731 400.914 636.591 400.914 633.458 398.35C630.183 395.645 629.613 395.929 631.18 399.632Z" fill="#0044AA"/>
<path d="M92.9965 403.477C88.5816 405.756 85.4485 408.177 85.8758 408.604C88.2968 410.883 102.253 406.183 103.678 402.623C105.529 397.781 103.535 397.923 92.9965 403.477Z" fill="#0044AA"/>
<path d="M115.355 400.772C102.111 403.62 105.956 406.753 122.049 406.183C139.281 405.471 145.405 403.335 141.132 399.347C139.851 398.208 138.284 398.778 137.572 400.772C136.006 404.759 127.888 405.471 123.758 401.911C122.334 400.629 118.489 400.202 115.355 400.772Z" fill="#0044AA"/>
<path d="M578.202 404.474C575.923 407.038 573.644 410.598 573.217 412.45C572.363 416.722 580.053 416.722 582.759 412.45C584.041 410.456 583.471 409.886 581.477 411.168C579.626 412.307 578.202 412.022 578.202 410.456C578.202 408.889 579.626 407.18 581.477 406.611C583.329 405.898 584.183 404.189 583.613 402.623C583.044 401.056 580.623 401.911 578.202 404.474Z" fill="#0044AA"/>
<path d="M376.97 408.604C376.97 411.595 379.819 412.877 386.37 412.877C391.639 412.877 395.911 411.453 395.911 409.886C395.911 408.177 394.772 407.607 393.348 408.462C391.924 409.316 390.073 408.462 389.218 406.468C388.221 403.762 387.082 403.905 384.803 407.18C382.667 410.028 381.812 410.313 381.67 407.892C381.67 405.898 380.673 404.332 379.249 404.332C377.967 404.332 376.97 406.183 376.97 408.604Z" fill="#0044AA"/>
<path d="M814.609 406.611C810.764 407.18 806.491 409.174 805.352 411.025C803.928 413.304 803.358 413.162 803.216 410.456C803.216 407.18 802.361 407.18 798.943 410.028C796.38 412.165 794.671 412.45 794.671 410.598C794.671 406.041 762.913 407.18 758.213 411.88C754.795 415.298 759.495 415.867 790.114 415.44C809.909 415.155 826.002 413.874 826.002 412.45C826.002 410.883 828.281 411.025 831.272 412.592C837.253 415.867 852.349 414.871 853.631 411.168C854.058 409.744 849.073 408.604 842.38 408.747C835.686 408.747 828.423 408.035 826.002 407.18C823.724 406.183 818.597 406.041 814.609 406.611Z" fill="#0044AA"/>
<path d="M192.402 409.744C191.547 411.025 194.111 412.877 198.098 413.589C205.219 415.013 209.491 412.449 205.931 409.032C203.225 406.326 194.253 406.753 192.402 409.744Z" fill="#0044AA"/>
<path d="M677.019 440.246H691.719V494.4C691.719 498.777 692.378 501.876 693.695 503.697C695.012 505.479 697.588 506.37 701.423 506.37H702.817V522H701.423C693.017 522 686.838 519.811 682.887 515.434C678.975 511.057 677.019 504.413 677.019 495.504V440.246ZM703.166 522H700.726L700.784 506.37H702.875C704.929 506.37 706.73 505.634 708.279 504.162C709.829 502.69 711.32 500.792 712.753 498.467C714.187 496.104 715.659 493.625 717.169 491.03C718.719 488.396 720.443 485.897 722.341 483.534C724.239 481.171 726.466 479.254 729.023 477.782C731.58 476.31 734.62 475.574 738.146 475.574C742.484 475.574 746.222 476.484 749.36 478.305C752.536 480.087 755.112 482.527 757.088 485.626C759.102 488.686 760.439 492.114 761.097 495.911C761.562 498.467 762.221 500.52 763.073 502.07C763.925 503.619 764.913 504.723 766.036 505.382C767.198 506.04 768.399 506.37 769.639 506.37H771.149V522H769.581C767.101 522 764.661 521.438 762.259 520.315C759.858 519.192 757.94 517.778 756.507 516.073C754.609 518.552 752.459 520.392 750.057 521.593C747.694 522.755 744.808 523.336 741.399 523.336C738.727 523.336 736.189 522.949 733.788 522.174C731.386 521.4 729.042 520.315 726.757 518.92C724.51 517.526 722.244 515.918 719.958 514.098C718.525 515.608 717.073 516.964 715.601 518.165C714.129 519.327 712.424 520.257 710.487 520.954C708.55 521.651 706.11 522 703.166 522ZM738.61 490.449C736.945 490.449 735.434 491.01 734.078 492.134C732.761 493.257 731.58 494.632 730.534 496.259C729.527 497.847 728.674 499.397 727.977 500.908C729.178 502.031 730.34 503.019 731.463 503.871C732.587 504.723 733.652 505.421 734.659 505.963C736.015 506.699 737.255 507.222 738.378 507.532C739.54 507.842 740.567 507.997 741.458 507.997C743.666 507.997 745.254 507.261 746.222 505.789C747.229 504.317 747.733 502.535 747.733 500.443C747.733 497.693 746.919 495.349 745.292 493.412C743.666 491.437 741.438 490.449 738.61 490.449ZM791.08 492.25C791.08 493.722 791.525 495.136 792.416 496.492C793.307 497.847 794.469 499.048 795.902 500.094C797.374 501.14 798.943 501.954 800.609 502.535C801.926 502.147 803.282 501.508 804.676 500.617C806.071 499.688 807.252 498.583 808.221 497.305C809.189 496.027 809.673 494.652 809.673 493.18C809.673 491.514 809.267 489.984 808.453 488.589C807.64 487.156 806.555 486.033 805.199 485.219C803.882 484.367 802.391 483.941 800.725 483.941C798.091 483.941 795.825 484.754 793.927 486.381C792.029 487.97 791.08 489.926 791.08 492.25ZM798.11 473.714L804.676 460.757C811.843 464.166 818.176 467.303 823.677 470.17C829.177 473.036 833.806 475.845 837.564 478.595C841.321 481.346 844.149 484.27 846.047 487.369C847.984 490.468 848.953 493.974 848.953 497.886C848.953 505.556 846.628 511.405 841.98 515.434C837.37 519.424 831.23 521.419 823.561 521.419C820.849 521.419 818.021 521.187 815.077 520.722C812.133 520.257 809.305 519.676 806.594 518.979C803.921 518.281 801.597 517.623 799.621 517.003C796.135 518.243 792.145 519.385 787.651 520.431C783.197 521.477 778.839 522 774.578 522H768.941V506.37H773.822C775.372 506.37 776.786 506.35 778.064 506.312C779.381 506.273 780.737 506.195 782.131 506.079C781.163 504.956 780.33 503.639 779.633 502.128C778.936 500.578 778.393 498.951 778.006 497.247C777.618 495.543 777.425 493.916 777.425 492.366C777.425 488.88 778.296 485.549 780.04 482.372C781.783 479.196 784.32 476.62 787.651 474.644C791.021 472.63 795.108 471.623 799.912 471.623C803.437 471.623 806.865 472.475 810.196 474.179C813.566 475.884 816.317 478.208 818.447 481.152C820.617 484.057 821.701 487.389 821.701 491.146C821.701 493.238 821.449 495.194 820.946 497.015C820.481 498.797 819.822 500.462 818.97 502.012C818.118 503.561 817.091 504.994 815.891 506.312C817.673 506.583 819.435 506.796 821.178 506.951C822.96 507.106 824.297 507.183 825.188 507.183C827.938 507.183 830.32 506.544 832.334 505.266C834.349 503.949 835.356 501.624 835.356 498.293C835.356 497.441 835.027 496.492 834.368 495.446C833.748 494.4 832.664 493.199 831.114 491.843C829.565 490.487 827.396 488.938 824.606 487.195C821.817 485.452 818.234 483.476 813.857 481.268C809.518 479.021 804.27 476.503 798.11 473.714Z" fill="#0044AA"/>
<path d="M63.9741 483.855V497.452H19.814V483.855H63.9741ZM24.9854 449.398V534H7.55371V449.398H24.9854ZM76.4087 449.398V534H59.0352V449.398H76.4087ZM87.8555 503.204V501.984C87.8555 497.374 88.514 493.132 89.8311 489.259C91.1481 485.346 93.0656 481.957 95.5835 479.09C98.1014 476.224 101.2 473.996 104.88 472.408C108.56 470.781 112.783 469.968 117.547 469.968C122.312 469.968 126.554 470.781 130.272 472.408C133.991 473.996 137.11 476.224 139.627 479.09C142.184 481.957 144.121 485.346 145.438 489.259C146.755 493.132 147.414 497.374 147.414 501.984V503.204C147.414 507.775 146.755 512.017 145.438 515.929C144.121 519.803 142.184 523.192 139.627 526.098C137.11 528.964 134.011 531.192 130.331 532.78C126.651 534.368 122.428 535.162 117.664 535.162C112.899 535.162 108.657 534.368 104.938 532.78C101.258 531.192 98.1401 528.964 95.5835 526.098C93.0656 523.192 91.1481 519.803 89.8311 515.929C88.514 512.017 87.8555 507.775 87.8555 503.204ZM104.59 501.984V503.204C104.59 505.838 104.822 508.298 105.287 510.583C105.752 512.869 106.488 514.883 107.495 516.626C108.541 518.331 109.897 519.667 111.562 520.636C113.228 521.604 115.262 522.088 117.664 522.088C119.988 522.088 121.983 521.604 123.648 520.636C125.314 519.667 126.651 518.331 127.658 516.626C128.665 514.883 129.401 512.869 129.866 510.583C130.369 508.298 130.621 505.838 130.621 503.204V501.984C130.621 499.427 130.369 497.026 129.866 494.779C129.401 492.493 128.646 490.479 127.6 488.736C126.592 486.954 125.256 485.559 123.59 484.552C121.925 483.545 119.91 483.042 117.547 483.042C115.184 483.042 113.17 483.545 111.504 484.552C109.877 485.559 108.541 486.954 107.495 488.736C106.488 490.479 105.752 492.493 105.287 494.779C104.822 497.026 104.59 499.427 104.59 501.984ZM174.433 484.146V534H157.64V471.13H173.387L174.433 484.146ZM172.108 500.357H167.46C167.46 495.98 167.983 491.951 169.029 488.271C170.113 484.552 171.682 481.337 173.735 478.625C175.827 475.875 178.403 473.745 181.463 472.234C184.524 470.723 188.068 469.968 192.097 469.968C194.886 469.968 197.442 470.394 199.767 471.246C202.091 472.06 204.086 473.357 205.751 475.139C207.456 476.882 208.773 479.168 209.703 481.996C210.632 484.785 211.097 488.135 211.097 492.048V534H194.363V493.907C194.363 491.041 193.975 488.833 193.201 487.283C192.426 485.734 191.322 484.649 189.889 484.029C188.494 483.41 186.809 483.1 184.833 483.1C182.664 483.1 180.766 483.545 179.139 484.436C177.551 485.327 176.234 486.567 175.188 488.155C174.142 489.704 173.367 491.525 172.864 493.617C172.36 495.708 172.108 497.955 172.108 500.357ZM209.528 498.439L203.543 499.195C203.543 495.089 204.047 491.273 205.054 487.748C206.1 484.223 207.63 481.124 209.645 478.451C211.698 475.778 214.235 473.706 217.256 472.234C220.278 470.723 223.764 469.968 227.715 469.968C230.737 469.968 233.487 470.413 235.966 471.304C238.445 472.156 240.557 473.532 242.3 475.43C244.082 477.289 245.438 479.729 246.367 482.751C247.336 485.772 247.82 489.472 247.82 493.849V534H231.027V493.849C231.027 490.944 230.64 488.736 229.865 487.225C229.129 485.676 228.045 484.61 226.611 484.029C225.217 483.41 223.551 483.1 221.614 483.1C219.6 483.1 217.837 483.506 216.327 484.32C214.816 485.095 213.557 486.179 212.55 487.574C211.543 488.968 210.787 490.595 210.284 492.455C209.78 494.275 209.528 496.27 209.528 498.439ZM294.711 519.822V491.815C294.711 489.801 294.382 488.077 293.723 486.644C293.065 485.172 292.038 484.029 290.644 483.216C289.288 482.402 287.525 481.996 285.356 481.996C283.497 481.996 281.889 482.325 280.533 482.983C279.177 483.603 278.132 484.514 277.396 485.714C276.66 486.876 276.292 488.252 276.292 489.84H259.557C259.557 487.167 260.177 484.63 261.417 482.228C262.656 479.826 264.457 477.715 266.82 475.895C269.183 474.035 271.992 472.583 275.246 471.537C278.538 470.491 282.218 469.968 286.286 469.968C291.167 469.968 295.505 470.781 299.301 472.408C303.097 474.035 306.08 476.476 308.25 479.729C310.458 482.983 311.562 487.051 311.562 491.932V518.834C311.562 522.282 311.775 525.11 312.201 527.318C312.627 529.487 313.247 531.385 314.06 533.012V534H297.151C296.338 532.296 295.718 530.165 295.292 527.608C294.905 525.013 294.711 522.418 294.711 519.822ZM296.919 495.708L297.035 505.18H287.68C285.472 505.18 283.555 505.431 281.928 505.935C280.301 506.439 278.964 507.155 277.918 508.085C276.873 508.976 276.098 510.022 275.594 511.223C275.129 512.424 274.897 513.741 274.897 515.174C274.897 516.607 275.226 517.905 275.885 519.067C276.543 520.19 277.492 521.081 278.732 521.74C279.972 522.36 281.424 522.669 283.09 522.669C285.608 522.669 287.796 522.166 289.656 521.159C291.515 520.152 292.948 518.912 293.956 517.44C295.001 515.968 295.544 514.573 295.583 513.256L299.999 520.345C299.379 521.933 298.527 523.58 297.442 525.284C296.396 526.989 295.06 528.596 293.433 530.107C291.806 531.579 289.849 532.799 287.564 533.768C285.278 534.697 282.567 535.162 279.429 535.162C275.439 535.162 271.817 534.368 268.563 532.78C265.348 531.153 262.792 528.925 260.894 526.098C259.034 523.231 258.104 519.977 258.104 516.336C258.104 513.043 258.724 510.119 259.964 507.562C261.203 505.005 263.024 502.855 265.426 501.112C267.866 499.33 270.907 497.994 274.548 497.103C278.19 496.173 282.412 495.708 287.215 495.708H296.919Z" fill="#0044AA"/>
</svg>
